<svg width="33" height="32" viewBox="0 0 33 32" fill="none" xmlns="http://www.w3.org/2000/svg">
<path d="M14.3779 1.20895C15.072 -0.402981 17.3575 -0.40298 18.0517 1.20895L21.1527 8.40978C21.4422 9.08213 22.076 9.54257 22.8049 9.61018L30.6116 10.3342C32.3591 10.4963 33.0654 12.6699 31.7468 13.8282L25.8567 19.0026C25.3067 19.4858 25.0647 20.2308 25.2256 20.9449L26.9494 28.5932C27.3353 30.3053 25.4863 31.6487 23.9772 30.7527L17.2359 26.7498C16.6065 26.376 15.8231 26.376 15.1937 26.7498L8.45236 30.7527C6.94329 31.6487 5.0943 30.3053 5.48018 28.5932L7.20396 20.9449C7.36491 20.2308 7.12284 19.4858 6.57287 19.0026L0.682734 13.8282C-0.635791 12.6699 0.0704632 10.4963 1.81801 10.3342L9.62467 9.61018C10.3536 9.54257 10.9873 9.08213 11.2769 8.40978L14.3779 1.20895Z" fill="#F5BF00"/>
</svg>
